<svg xmlns="http://www.w3.org/2000/svg" xmlns:xlink="http://www.w3.org/1999/xlink" viewBox="0 0 220.41 136.41"><defs><style>.cls-1{fill:none;}.cls-2{clip-path:url(#clip-path);}.cls-3{fill:#fff;}.cls-4{clip-path:url(#clip-path-2);}</style><clipPath id="clip-path" transform="translate(0 4.64)"><rect class="cls-1" y="0.23" width="93.16" height="131.54"/></clipPath><clipPath id="clip-path-2" transform="translate(0 4.64)"><path class="cls-1" d="M146.15.36V17.72h14.24V12.11h-8.13V6.51h8.13V.36Zm20.35,0V6.51c1.88,1.9,2.92,2.85,5.66,5.6H166.5v5.61h14.24V12.11l-5.66-5.6h5.7V.36Zm20.21,0V6.51c1.89,1.9,2.92,2.85,5.67,5.6h-5.67v5.61H201V12.11l-5.66-5.6H201V.36Z"/></clipPath></defs><title>css</title><g id="html_影像" data-name="html 影像"><g class="cls-2"><path class="cls-3" d="M20.14.23V6H14.72V.23H8.8V17.82h5.92V11.93h5.42v5.89h5.93V.23Zm8.5,0V6.06h5.22V17.82h5.92V6.06H45V.23Zm32.73,0L57.58,6.41,53.78.23H47.6V17.82h5.8V9.1l4.07,6.26h.11L61.65,9.1v8.72h5.9V.23Zm9.13,0V17.82H84.76V12H76.43V.23Z" transform="translate(0 4.64)"/><path class="cls-3" d="M17.87,48.53l-.28-3.12H76l-.27,3.12-.54,5.91-.23,2.62H30.31L31.38,69H73.86l-.28,3.13-2.74,30.67-.18,2-23.88,6.62v0l-.06,0-23.84-6.62-1.63-18.3H32.94l.82,9.29,13,3.51.05,0v0l13-3.51,1.36-15.11H20.73ZM0,26.22l8.48,95,38,10.55L84.67,121.2l8.49-95H0Z" transform="translate(0 4.64)"/></g></g><g id="css_影像" data-name="css 影像"><g class="cls-4"><rect class="cls-3" x="141.15" width="64.86" height="27.36"/></g><path class="cls-3" d="M144.44,45.79h29.2l29.11,0-1.16,11.48-27,11.66h25.88l-3.06,35.72-23.45,7v0h-.09l-23.68-7.1-1.52-18h11.77l.76,9.32L173.86,99l13.08-3.75.9-15-39.18-.14-.72.32L147,69.25v-.31h.68L173.6,58v-.23l2.06-.86H145.83ZM127.59,26.63l8.72,94.79L174,131.64l37.74-10.22,8.63-94.79Z" transform="translate(0 4.64)"/></g></svg>