<svg id="圖層_1" data-name="圖層 1" xmlns="http://www.w3.org/2000/svg" xmlns:xlink="http://www.w3.org/1999/xlink" viewBox="0 0 179.85 45.87"><defs><style>.cls-1,.cls-2{fill:none;}.cls-1{clip-rule:evenodd;}.cls-3{clip-path:url(#clip-path);}.cls-4{clip-path:url(#clip-path-2);}.cls-5{fill:#fff;}.cls-6{clip-path:url(#clip-path-3);}.cls-7{clip-path:url(#clip-path-5);}.cls-8{clip-path:url(#clip-path-7);}.cls-9{clip-path:url(#clip-path-9);}.cls-10{clip-path:url(#clip-path-11);}.cls-11{clip-path:url(#clip-path-13);}.cls-12{clip-path:url(#clip-path-15);}.cls-13{clip-path:url(#clip-path-17);}.cls-14{clip-path:url(#clip-path-19);}.cls-15{clip-path:url(#clip-path-21);}.cls-16{clip-path:url(#clip-path-23);}.cls-17{clip-path:url(#clip-path-25);}</style><clipPath id="clip-path" transform="translate(4.97 4.91)"><path class="cls-1" d="M36,18.72l-7.5,13.11a1.91,1.91,0,0,1-1.17.68h-15a1.9,1.9,0,0,1-1.18-.68L3.7,18.72a1.9,1.9,0,0,1,0-1.37L11.19,4.24a1.87,1.87,0,0,1,1.18-.69h15a1.87,1.87,0,0,1,1.17.69L36,17.35A1.9,1.9,0,0,1,36,18.72ZM39.23,16l-8-13.94a4.38,4.38,0,0,0-3.43-2H11.89a4.37,4.37,0,0,0-3.42,2L.5,16a4.47,4.47,0,0,0,0,4L8.47,34a4.37,4.37,0,0,0,3.42,2H27.83a4.38,4.38,0,0,0,3.43-2l8-13.94A4.47,4.47,0,0,0,39.23,16Z"/></clipPath><clipPath id="clip-path-2" transform="translate(4.97 4.91)"><rect class="cls-2" x="-42" y="-20" width="1024" height="2054"/></clipPath><clipPath id="clip-path-3" transform="translate(4.97 4.91)"><rect class="cls-2" x="8.02" y="18.27" width="11.84" height="2.54"/></clipPath><clipPath id="clip-path-5" transform="translate(4.97 4.91)"><rect class="cls-2" x="10.34" y="22.82" width="9.52" height="2.54"/></clipPath><clipPath id="clip-path-7" transform="translate(4.97 4.91)"><rect class="cls-2" x="12.66" y="27.37" width="7.2" height="2.54"/></clipPath><clipPath id="clip-path-9" transform="translate(4.97 4.91)"><polyline class="cls-1" points="60.22 27.98 56.85 27.98 56.85 19.24 48.14 19.24 48.14 27.98 44.76 27.98 44.76 8.31 48.14 8.31 48.14 16.5 56.85 16.5 56.85 8.31 60.22 8.31 60.22 27.98"/></clipPath><clipPath id="clip-path-11" transform="translate(4.97 4.91)"><path class="cls-1" d="M68.34,15.73a2.73,2.73,0,0,0-2.16.94,4.94,4.94,0,0,0-1.05,2.64h6.2v-.24a6.28,6.28,0,0,0-.21-1.25,3,3,0,0,0-.52-1.07,2.43,2.43,0,0,0-.9-.74A2.94,2.94,0,0,0,68.34,15.73Zm.39,12.52a7.41,7.41,0,0,1-2.89-.54,6.33,6.33,0,0,1-2.18-1.48A6.44,6.44,0,0,1,62.28,24a7.94,7.94,0,0,1-.48-2.79v-.54a9.05,9.05,0,0,1,.51-3.13,7.15,7.15,0,0,1,1.39-2.38,6.08,6.08,0,0,1,2.08-1.51,6.21,6.21,0,0,1,2.58-.54,6.47,6.47,0,0,1,2.74.54A5.06,5.06,0,0,1,73,15.12a6.43,6.43,0,0,1,1.14,2.28,10.73,10.73,0,0,1,.38,2.91v1.4H65.08a5.22,5.22,0,0,0,.35,1.57,3.87,3.87,0,0,0,.79,1.24,3.74,3.74,0,0,0,1.17.82,3.9,3.9,0,0,0,1.53.29A4.33,4.33,0,0,0,71,25.15a5.06,5.06,0,0,0,1.55-1.34l1.75,1.69a5.87,5.87,0,0,1-2.07,1.9,7.36,7.36,0,0,1-1.56.62A7.79,7.79,0,0,1,68.73,28.25Z"/></clipPath><clipPath id="clip-path-13" transform="translate(4.97 4.91)"><polyline class="cls-1" points="81.25 18.18 84.01 13.37 87.62 13.37 83.19 20.57 87.77 27.98 84.18 27.98 81.29 22.98 78.41 27.98 74.8 27.98 79.38 20.57 74.96 13.37 78.55 13.37 81.25 18.18"/></clipPath><clipPath id="clip-path-15" transform="translate(4.97 4.91)"><path class="cls-1" d="M104.23,22.92a2.91,2.91,0,0,0-.18-1.06,2,2,0,0,0-.63-.86,5.38,5.38,0,0,0-1.27-.75,18.7,18.7,0,0,0-2.08-.75,19.69,19.69,0,0,1-2.57-1,8.76,8.76,0,0,1-2-1.26,5.27,5.27,0,0,1-1.33-1.65,4.58,4.58,0,0,1-.48-2.13,4.89,4.89,0,0,1,.5-2.19,5.33,5.33,0,0,1,1.41-1.73,6.92,6.92,0,0,1,2.18-1.13A9.26,9.26,0,0,1,100.56,8a8.55,8.55,0,0,1,3,.48,6.76,6.76,0,0,1,2.21,1.3,5.56,5.56,0,0,1,1.39,1.92,5.62,5.62,0,0,1,.48,2.31h-3.37a4,4,0,0,0-.22-1.31,2.69,2.69,0,0,0-.68-1,3,3,0,0,0-1.15-.69,5,5,0,0,0-1.64-.24A5.53,5.53,0,0,0,99,11a3.31,3.31,0,0,0-1.09.57,2.19,2.19,0,0,0-.64.87A2.74,2.74,0,0,0,97,13.49a2.18,2.18,0,0,0,1,1.82,10.58,10.58,0,0,0,3.12,1.35A19,19,0,0,1,104,17.74a8.32,8.32,0,0,1,2,1.35,4.71,4.71,0,0,1,1.18,1.69,5.44,5.44,0,0,1,.39,2.11,5,5,0,0,1-.49,2.24,4.58,4.58,0,0,1-1.39,1.68,6.44,6.44,0,0,1-2.18,1.07,10.24,10.24,0,0,1-2.87.37,10.06,10.06,0,0,1-2.77-.38,8,8,0,0,1-2.44-1.16,6,6,0,0,1-1.75-1.94A5.46,5.46,0,0,1,93.06,22h3.38a3.6,3.6,0,0,0,.33,1.6,2.92,2.92,0,0,0,.9,1.09,3.61,3.61,0,0,0,1.34.63,6.89,6.89,0,0,0,1.67.19,4.16,4.16,0,0,0,2.66-.72,2.35,2.35,0,0,0,.89-1.91"/></clipPath><clipPath id="clip-path-17" transform="translate(4.97 4.91)"><path class="cls-1" d="M115.67,25.63a3.3,3.3,0,0,0,1.1-.18,2.84,2.84,0,0,0,.9-.51,2.62,2.62,0,0,0,.61-.79,2.29,2.29,0,0,0,.26-1h3.07a4.7,4.7,0,0,1-.52,2,5.29,5.29,0,0,1-1.27,1.63,6.22,6.22,0,0,1-1.85,1.1,6.51,6.51,0,0,1-2.26.39,6.72,6.72,0,0,1-2.91-.58,5.68,5.68,0,0,1-2.06-1.58,6.54,6.54,0,0,1-1.23-2.34,10,10,0,0,1-.4-2.83v-.48a10,10,0,0,1,.4-2.83,6.76,6.76,0,0,1,1.23-2.35,5.73,5.73,0,0,1,2.05-1.58,7.31,7.31,0,0,1,5.29-.18,5.58,5.58,0,0,1,1.85,1.13,5.25,5.25,0,0,1,1.2,1.75,6.16,6.16,0,0,1,.48,2.23h-3.07a3.19,3.19,0,0,0-.23-1.11,2.82,2.82,0,0,0-.58-.92,2.59,2.59,0,0,0-.89-.62,2.91,2.91,0,0,0-1.17-.23,3,3,0,0,0-1.63.41,3,3,0,0,0-1,1.08,4.65,4.65,0,0,0-.52,1.51,11,11,0,0,0-.14,1.71v.48a10.92,10.92,0,0,0,.14,1.73,4.65,4.65,0,0,0,.52,1.51,3,3,0,0,0,1,1.07,3,3,0,0,0,1.64.4"/></clipPath><clipPath id="clip-path-19" transform="translate(4.97 4.91)"><path class="cls-1" d="M126.72,15a5.41,5.41,0,0,1,1.76-1.37,5.1,5.1,0,0,1,2.26-.5,5.88,5.88,0,0,1,1.93.3,3.7,3.7,0,0,1,1.49.95,4.54,4.54,0,0,1,1,1.71,8.44,8.44,0,0,1,.33,2.53V28h-3.25V18.55a2.91,2.91,0,0,0-.65-2.14,2.63,2.63,0,0,0-1.91-.63,3.09,3.09,0,0,0-1.74.48,3.37,3.37,0,0,0-1.17,1.28V28h-3.25V7.23h3.25V15"/></clipPath><clipPath id="clip-path-21" transform="translate(4.97 4.91)"><path class="cls-1" d="M140.27,20.82a8.65,8.65,0,0,0,.2,1.87,4.78,4.78,0,0,0,.63,1.53,3.15,3.15,0,0,0,1.09,1,3,3,0,0,0,1.57.38,3,3,0,0,0,1.56-.38,3,3,0,0,0,1.08-1,4.78,4.78,0,0,0,.63-1.53,8.06,8.06,0,0,0,.21-1.87v-.28a8,8,0,0,0-.21-1.85,5,5,0,0,0-.63-1.52,3.31,3.31,0,0,0-1.09-1.05,3,3,0,0,0-1.57-.39,3,3,0,0,0-1.56.39,3.28,3.28,0,0,0-1.08,1.05,4.73,4.73,0,0,0-.63,1.52,8.53,8.53,0,0,0-.2,1.85ZM137,20.54a9,9,0,0,1,.46-2.95,7,7,0,0,1,1.33-2.36,6,6,0,0,1,2.1-1.57,7.34,7.34,0,0,1,5.67,0,6.09,6.09,0,0,1,2.13,1.57A7,7,0,0,1,150,17.59a9,9,0,0,1,.46,2.95v.28a9.09,9.09,0,0,1-.46,3,6.86,6.86,0,0,1-1.31,2.36,6,6,0,0,1-2.12,1.55,7.46,7.46,0,0,1-5.67,0,6,6,0,0,1-2.11-1.55,6.9,6.9,0,0,1-1.33-2.36,9.09,9.09,0,0,1-.46-3Z"/></clipPath><clipPath id="clip-path-23" transform="translate(4.97 4.91)"><path class="cls-1" d="M155,20.82a8.06,8.06,0,0,0,.2,1.87,4.57,4.57,0,0,0,.63,1.53,3,3,0,0,0,1.09,1,3.14,3.14,0,0,0,4.21-1,5,5,0,0,0,.63-1.53,8.06,8.06,0,0,0,.21-1.87v-.28a8,8,0,0,0-.21-1.85,4.74,4.74,0,0,0-.64-1.52,3.22,3.22,0,0,0-1.09-1.05,3,3,0,0,0-1.57-.39,3,3,0,0,0-1.56.39,3.25,3.25,0,0,0-1.07,1.05,4.51,4.51,0,0,0-.63,1.52,8,8,0,0,0-.2,1.85Zm-3.25-.28a9,9,0,0,1,.46-2.95,7,7,0,0,1,1.32-2.36,6.11,6.11,0,0,1,2.11-1.57,6.7,6.7,0,0,1,2.82-.57,6.84,6.84,0,0,1,2.85.57,6,6,0,0,1,2.12,1.57,6.81,6.81,0,0,1,1.32,2.36,9.31,9.31,0,0,1,.45,2.95v.28a9.37,9.37,0,0,1-.45,3,6.72,6.72,0,0,1-1.32,2.36,6,6,0,0,1-2.11,1.55,7.46,7.46,0,0,1-5.67,0,6,6,0,0,1-2.12-1.55,6.88,6.88,0,0,1-1.32-2.36,9.09,9.09,0,0,1-.46-3Z"/></clipPath><clipPath id="clip-path-25" transform="translate(4.97 4.91)"><rect class="cls-2" x="166.63" y="7.23" width="3.25" height="20.75"/></clipPath></defs><title>向量圖智慧型物件</title><g class="cls-3"><g class="cls-4"><rect class="cls-5" width="49.67" height="45.87"/></g></g><g class="cls-6"><g class="cls-4"><rect class="cls-5" x="7.99" y="18.17" width="21.84" height="12.54"/></g></g><g class="cls-7"><g class="cls-4"><rect class="cls-5" x="10.32" y="22.72" width="19.52" height="12.54"/></g></g><g class="cls-8"><g class="cls-4"><rect class="cls-5" x="12.64" y="27.28" width="17.2" height="12.54"/></g></g><g class="cls-9"><g class="cls-4"><rect class="cls-5" x="44.73" y="8.22" width="25.46" height="29.67"/></g></g><g class="cls-10"><g class="cls-4"><rect class="cls-5" x="61.77" y="13" width="22.74" height="25.16"/></g></g><g class="cls-11"><g class="cls-4"><rect class="cls-5" x="74.78" y="13.27" width="22.96" height="24.62"/></g></g><g class="cls-12"><g class="cls-4"><rect class="cls-5" x="93.03" y="7.95" width="24.55" height="30.21"/></g></g><g class="cls-13"><g class="cls-4"><rect class="cls-5" x="109.09" y="13" width="22.5" height="25.16"/></g></g><g class="cls-14"><g class="cls-4"><rect class="cls-5" x="123.44" y="7.14" width="21.97" height="30.75"/></g></g><g class="cls-15"><g class="cls-4"><rect class="cls-5" x="136.99" y="13" width="23.46" height="25.16"/></g></g><g class="cls-16"><g class="cls-4"><rect class="cls-5" x="151.74" y="13" width="23.46" height="25.16"/></g></g><g class="cls-17"><g class="cls-4"><rect class="cls-5" x="166.6" y="7.14" width="13.25" height="30.75"/></g></g></svg>