<?xml version="1.0" encoding="utf-8"?>
<!-- Generator: Adobe Illustrator 22.1.0, SVG Export Plug-In . SVG Version: 6.00 Build 0)  -->
<svg version="1.1" id="圖層_1" xmlns="http://www.w3.org/2000/svg" xmlns:xlink="http://www.w3.org/1999/xlink" x="0px" y="0px"
	 viewBox="0 0 92 135" style="enable-background:new 0 0 92 135;" xml:space="preserve">
<style type="text/css">
	.st0{clip-path:url(#SVGID_2_);}
	.st1{clip-path:url(#SVGID_4_);fill:#4A4A4A;}
	.st2{clip-path:url(#SVGID_6_);}
	.st3{clip-path:url(#SVGID_8_);fill:#9B9B9B;}
	.st4{clip-path:url(#SVGID_10_);}
	.st5{clip-path:url(#SVGID_12_);fill:#EBEBEB;}
	.st6{clip-path:url(#SVGID_14_);}
	.st7{clip-path:url(#SVGID_16_);fill:#FFFFFF;}
	.st8{clip-path:url(#SVGID_18_);}
	.st9{clip-path:url(#SVGID_20_);fill:#EBEBEB;}
	.st10{clip-path:url(#SVGID_22_);}
	.st11{clip-path:url(#SVGID_24_);fill:#EBEBEB;}
	.st12{clip-path:url(#SVGID_26_);}
	.st13{clip-path:url(#SVGID_28_);fill:#FFFFFF;}
	.st14{clip-path:url(#SVGID_30_);}
	.st15{clip-path:url(#SVGID_32_);fill:#FFFFFF;}
	.st16{clip-path:url(#SVGID_34_);}
	.st17{clip-path:url(#SVGID_36_);fill:#FFFFFF;}
	.st18{clip-path:url(#SVGID_38_);}
	.st19{clip-path:url(#SVGID_40_);fill:#4A4A4A;}
	.st20{clip-path:url(#SVGID_42_);}
	.st21{clip-path:url(#SVGID_44_);fill:#4A4A4A;}
	.st22{clip-path:url(#SVGID_46_);}
	.st23{clip-path:url(#SVGID_48_);fill:#4A4A4A;}
</style>
<g>
	<defs>
		<polygon id="SVGID_1_" points="0,26.3 8.3,124.1 45.5,135 82.8,124.1 91.1,26.3 		"/>
	</defs>
	<clipPath id="SVGID_2_">
		<use xlink:href="#SVGID_1_"  style="overflow:visible;"/>
	</clipPath>
	<g class="st0">
		<defs>
			<rect id="SVGID_3_" x="-466" y="-720" width="1024" height="2054"/>
		</defs>
		<clipPath id="SVGID_4_">
			<use xlink:href="#SVGID_3_"  style="overflow:visible;"/>
		</clipPath>
		<rect x="-5" y="21.3" class="st1" width="101.1" height="118.7"/>
	</g>
</g>
<g>
	<defs>
		<polygon id="SVGID_5_" points="45.6,127.4 75.5,118.6 82.5,34.6 45.6,34.6 		"/>
	</defs>
	<clipPath id="SVGID_6_">
		<use xlink:href="#SVGID_5_"  style="overflow:visible;"/>
	</clipPath>
	<g class="st2">
		<defs>
			<rect id="SVGID_7_" x="-466" y="-720" width="1024" height="2054"/>
		</defs>
		<clipPath id="SVGID_8_">
			<use xlink:href="#SVGID_7_"  style="overflow:visible;"/>
		</clipPath>
		<rect x="40.6" y="29.6" class="st3" width="47" height="102.8"/>
	</g>
</g>
<g>
	<defs>
		<polygon id="SVGID_9_" points="29.5,58.3 45.6,58.3 45.6,46.4 17.2,46.4 17.4,49.6 20.2,82.4 45.6,82.4 45.6,70.5 30.6,70.5 		"/>
	</defs>
	<clipPath id="SVGID_10_">
		<use xlink:href="#SVGID_9_"  style="overflow:visible;"/>
	</clipPath>
	<g class="st4">
		<defs>
			<rect id="SVGID_11_" x="-466" y="-720" width="1024" height="2054"/>
		</defs>
		<clipPath id="SVGID_12_">
			<use xlink:href="#SVGID_11_"  style="overflow:visible;"/>
		</clipPath>
		<rect x="12.2" y="41.4" class="st5" width="38.4" height="46"/>
	</g>
</g>
<g>
	<defs>
		<path id="SVGID_13_" d="M45.6,82.4h14l11.4,0l1-11.9H45.6V82.4z M45.6,58.3L45.6,58.3l27.4,0l0.2-2.7l0.5-6l0.3-3.2H45.6V58.3
			L45.6,58.3z"/>
	</defs>
	<clipPath id="SVGID_14_">
		<use xlink:href="#SVGID_13_"  style="overflow:visible;"/>
	</clipPath>
	<g class="st6">
		<defs>
			<rect id="SVGID_15_" x="-466" y="-720" width="1024" height="2054"/>
		</defs>
		<clipPath id="SVGID_16_">
			<use xlink:href="#SVGID_15_"  style="overflow:visible;"/>
		</clipPath>
		<rect x="40.6" y="41.4" class="st7" width="38.4" height="46"/>
	</g>
</g>
<g>
	<defs>
		<polygon id="SVGID_17_" points="17.2,46.4 28.8,46.4 34.3,110.8 22.1,107.1 		"/>
	</defs>
	<clipPath id="SVGID_18_">
		<use xlink:href="#SVGID_17_"  style="overflow:visible;"/>
	</clipPath>
	<g class="st8">
		<defs>
			<rect id="SVGID_19_" x="-466" y="-720" width="1024" height="2054"/>
		</defs>
		<clipPath id="SVGID_20_">
			<use xlink:href="#SVGID_19_"  style="overflow:visible;"/>
		</clipPath>
		<rect x="12.2" y="41.4" class="st9" width="27.2" height="74.4"/>
	</g>
</g>
<g>
	<defs>
		<polygon id="SVGID_21_" points="34.3,110.8 33.2,98.2 32.9,98.1 32.1,88.6 20.5,88.6 22.1,107.3 		"/>
	</defs>
	<clipPath id="SVGID_22_">
		<use xlink:href="#SVGID_21_"  style="overflow:visible;"/>
	</clipPath>
	<g class="st10">
		<defs>
			<rect id="SVGID_23_" x="-466" y="-720" width="1024" height="2054"/>
		</defs>
		<clipPath id="SVGID_24_">
			<use xlink:href="#SVGID_23_"  style="overflow:visible;"/>
		</clipPath>
		<rect x="15.5" y="83.6" class="st11" width="23.9" height="32.2"/>
	</g>
</g>
<g>
	<defs>
		<polygon id="SVGID_25_" points="62.5,46.4 59.4,82.4 71.9,70.5 74,46.4 		"/>
	</defs>
	<clipPath id="SVGID_26_">
		<use xlink:href="#SVGID_25_"  style="overflow:visible;"/>
	</clipPath>
	<g class="st12">
		<defs>
			<rect id="SVGID_27_" x="-466" y="-720" width="1024" height="2054"/>
		</defs>
		<clipPath id="SVGID_28_">
			<use xlink:href="#SVGID_27_"  style="overflow:visible;"/>
		</clipPath>
		<rect x="54.4" y="41.4" class="st13" width="24.5" height="46"/>
	</g>
</g>
<g>
	<defs>
		<polygon id="SVGID_29_" points="53.3,82.4 50.8,111.5 62.7,106.5 64.7,82.4 		"/>
	</defs>
	<clipPath id="SVGID_30_">
		<use xlink:href="#SVGID_29_"  style="overflow:visible;"/>
	</clipPath>
	<g class="st14">
		<defs>
			<rect id="SVGID_31_" x="-466" y="-720" width="1024" height="2054"/>
		</defs>
		<clipPath id="SVGID_32_">
			<use xlink:href="#SVGID_31_"  style="overflow:visible;"/>
		</clipPath>
		<rect x="45.8" y="77.4" class="st15" width="23.9" height="39.1"/>
	</g>
</g>
<g>
	<defs>
		<polygon id="SVGID_33_" points="50.8,111.5 68.9,106.1 70,93.5 51.9,98.6 		"/>
	</defs>
	<clipPath id="SVGID_34_">
		<use xlink:href="#SVGID_33_"  style="overflow:visible;"/>
	</clipPath>
	<g class="st16">
		<defs>
			<rect id="SVGID_35_" x="-466" y="-720" width="1024" height="2054"/>
		</defs>
		<clipPath id="SVGID_36_">
			<use xlink:href="#SVGID_35_"  style="overflow:visible;"/>
		</clipPath>
		<rect x="45.8" y="88.5" class="st17" width="29.1" height="28"/>
	</g>
</g>
<g>
	<defs>
		<path id="SVGID_37_" d="M15.5,0.1h7.4c0.8,0,1.7,0.1,2.5,0.3c0.8,0.2,1.6,0.5,2.2,1c0.7,0.5,1.2,1.1,1.6,1.8
			c0.4,0.8,0.6,1.7,0.6,2.9c0,1.1-0.3,2.1-0.8,2.9c-0.5,0.9-1.3,1.5-2.2,2l4.3,7.4h-6.6l-3.3-6.5H21v6.5h-5.6V0.1z M21,7.8h1.1
			c0.2,0,0.4,0,0.6-0.1c0.2,0,0.4-0.1,0.6-0.2c0.2-0.1,0.4-0.3,0.5-0.5c0.1-0.2,0.2-0.5,0.2-0.8s-0.1-0.6-0.2-0.8
			c-0.1-0.2-0.3-0.3-0.4-0.4c-0.2-0.1-0.4-0.2-0.6-0.2c-0.2,0-0.4,0-0.6,0H21V7.8z"/>
	</defs>
	<clipPath id="SVGID_38_">
		<use xlink:href="#SVGID_37_"  style="overflow:visible;"/>
	</clipPath>
	<g class="st18">
		<defs>
			<rect id="SVGID_39_" x="-466" y="-720" width="1024" height="2054"/>
		</defs>
		<clipPath id="SVGID_40_">
			<use xlink:href="#SVGID_39_"  style="overflow:visible;"/>
		</clipPath>
		<rect x="10.5" y="-4.9" class="st19" width="25.6" height="28.2"/>
	</g>
</g>
<g>
	<defs>
		<polygon id="SVGID_41_" points="41.3,18.3 35.5,18.3 30.9,0.1 37,0.1 38.8,10.3 38.9,10.3 40.9,0.1 46.9,0.1 49,10.3 49.1,10.3 
			51,0.1 56.9,0.1 52.1,18.3 46.3,18.3 43.9,8 43.8,8 		"/>
	</defs>
	<clipPath id="SVGID_42_">
		<use xlink:href="#SVGID_41_"  style="overflow:visible;"/>
	</clipPath>
	<g class="st20">
		<defs>
			<rect id="SVGID_43_" x="-466" y="-720" width="1024" height="2054"/>
		</defs>
		<clipPath id="SVGID_44_">
			<use xlink:href="#SVGID_43_"  style="overflow:visible;"/>
		</clipPath>
		<rect x="25.9" y="-4.9" class="st21" width="36" height="28.2"/>
	</g>
</g>
<g>
	<defs>
		<path id="SVGID_45_" d="M58.2,18.3V0.1h6.4c1.4,0,2.6,0.1,3.9,0.4c1.2,0.3,2.3,0.8,3.3,1.5c0.9,0.7,1.7,1.6,2.3,2.8
			c0.6,1.2,0.8,2.6,0.8,4.4c0,1.6-0.3,3-0.8,4.1c-0.5,1.2-1.3,2.1-2.2,2.9c-0.9,0.7-1.9,1.3-3.1,1.7c-1.2,0.4-2.4,0.5-3.7,0.5H58.2z
			 M63.8,5.3V13h1.1c1.4,0,2.4-0.3,3.1-0.9C68.7,11.5,69,10.5,69,9c0-1.2-0.4-2.1-1.1-2.8c-0.7-0.7-1.7-1-2.9-1H63.8z"/>
	</defs>
	<clipPath id="SVGID_46_">
		<use xlink:href="#SVGID_45_"  style="overflow:visible;"/>
	</clipPath>
	<g class="st22">
		<defs>
			<rect id="SVGID_47_" x="-466" y="-720" width="1024" height="2054"/>
		</defs>
		<clipPath id="SVGID_48_">
			<use xlink:href="#SVGID_47_"  style="overflow:visible;"/>
		</clipPath>
		<rect x="53.2" y="-4.9" class="st23" width="26.6" height="28.2"/>
	</g>
</g>
</svg>
