<?xml version="1.0" encoding="utf-8"?>
<!-- Generator: Adobe Illustrator 22.1.0, SVG Export Plug-In . SVG Version: 6.00 Build 0)  -->
<svg version="1.1" id="圖層_1" xmlns="http://www.w3.org/2000/svg" xmlns:xlink="http://www.w3.org/1999/xlink" x="0px" y="0px"
	 viewBox="0 0 92 135" style="enable-background:new 0 0 92 135;" xml:space="preserve">
<style type="text/css">
	.st0{clip-path:url(#SVGID_2_);}
	.st1{clip-path:url(#SVGID_4_);fill:#4A4A4A;}
	.st2{clip-path:url(#SVGID_6_);}
	.st3{clip-path:url(#SVGID_8_);fill:#9B9B9B;}
	.st4{clip-path:url(#SVGID_10_);}
	.st5{clip-path:url(#SVGID_12_);fill:#EBEBEB;}
	.st6{clip-path:url(#SVGID_14_);}
	.st7{clip-path:url(#SVGID_16_);fill:#4A4A4A;}
	.st8{clip-path:url(#SVGID_18_);}
	.st9{clip-path:url(#SVGID_20_);fill:#FFFFFF;}
</style>
<g>
	<defs>
		<polygon id="SVGID_1_" points="0,26.6 8.3,124.2 45.7,135 83.2,124.1 91.5,26.6 		"/>
	</defs>
	<clipPath id="SVGID_2_">
		<use xlink:href="#SVGID_1_"  style="overflow:visible;"/>
	</clipPath>
	<g class="st0">
		<defs>
			<rect id="SVGID_3_" x="-146" y="-720" width="1024" height="2054"/>
		</defs>
		<clipPath id="SVGID_4_">
			<use xlink:href="#SVGID_3_"  style="overflow:visible;"/>
		</clipPath>
		<rect x="-5" y="21.6" class="st1" width="101.5" height="118.4"/>
	</g>
</g>
<g>
	<defs>
		<polygon id="SVGID_5_" points="46.1,126.4 76.2,117.6 83.2,34.5 46.1,34.5 		"/>
	</defs>
	<clipPath id="SVGID_6_">
		<use xlink:href="#SVGID_5_"  style="overflow:visible;"/>
	</clipPath>
	<g class="st2">
		<defs>
			<rect id="SVGID_7_" x="-146" y="-720" width="1024" height="2054"/>
		</defs>
		<clipPath id="SVGID_8_">
			<use xlink:href="#SVGID_7_"  style="overflow:visible;"/>
		</clipPath>
		<rect x="41.1" y="29.5" class="st3" width="47.1" height="101.9"/>
	</g>
</g>
<g>
	<defs>
		<path id="SVGID_9_" d="M29.8,57.9h16.3V46H17.2l0.3,3.2L20.3,82h25.8V70.1H30.8L29.8,57.9z M32.4,88H20.8l1.6,18.7l23.6,6.8l0.1,0
			V101l-0.1,0l-12.8-3.6L32.4,88z"/>
	</defs>
	<clipPath id="SVGID_10_">
		<use xlink:href="#SVGID_9_"  style="overflow:visible;"/>
	</clipPath>
	<g class="st4">
		<defs>
			<rect id="SVGID_11_" x="-146" y="-720" width="1024" height="2054"/>
		</defs>
		<clipPath id="SVGID_12_">
			<use xlink:href="#SVGID_11_"  style="overflow:visible;"/>
		</clipPath>
		<rect x="12.2" y="41" class="st5" width="38.9" height="77.5"/>
	</g>
</g>
<g>
	<defs>
		<path id="SVGID_13_" d="M19.4,0v6.2H14V0H8.3v18.7h5.8v-6.3h5.3v6.3h5.8V0H19.4z M27.7,0v6.2h5.1h0v12.5h5.8V6.2h5.1V0H27.7z
			 M59.7,0L56,6.6L52.2,0h-6v18.7h5.7V9.4l4,6.6H56l4-6.6v9.3h5.8V0H59.7z M68.6,0v18.7h13.9v-6.2h-8.1V0H68.6z"/>
	</defs>
	<clipPath id="SVGID_14_">
		<use xlink:href="#SVGID_13_"  style="overflow:visible;"/>
	</clipPath>
	<g class="st6">
		<defs>
			<rect id="SVGID_15_" x="-146" y="-720" width="1024" height="2054"/>
		</defs>
		<clipPath id="SVGID_16_">
			<use xlink:href="#SVGID_15_"  style="overflow:visible;"/>
		</clipPath>
		<rect x="3.3" y="-5" class="st7" width="84.3" height="28.7"/>
	</g>
</g>
<g>
	<defs>
		<path id="SVGID_17_" d="M46.1,82h14.2L59,97.5l-12.9,3.6v12.4l23.6-6.8l0.2-2l2.7-31.4l0.3-3.2H46.1V82z M46.1,57.8L46.1,57.8
			l27.9,0l0.2-2.7l0.5-6L75,46H46.1V57.8L46.1,57.8z"/>
	</defs>
	<clipPath id="SVGID_18_">
		<use xlink:href="#SVGID_17_"  style="overflow:visible;"/>
	</clipPath>
	<g class="st8">
		<defs>
			<rect id="SVGID_19_" x="-146" y="-720" width="1024" height="2054"/>
		</defs>
		<clipPath id="SVGID_20_">
			<use xlink:href="#SVGID_19_"  style="overflow:visible;"/>
		</clipPath>
		<rect x="41.1" y="41" class="st9" width="38.9" height="77.5"/>
	</g>
</g>
</svg>
