<?xml version="1.0" encoding="utf-8"?>
<!-- Generator: Adobe Illustrator 22.1.0, SVG Export Plug-In . SVG Version: 6.00 Build 0)  -->
<svg version="1.1" id="圖層_1" xmlns="http://www.w3.org/2000/svg" xmlns:xlink="http://www.w3.org/1999/xlink" x="0px" y="0px"
	 viewBox="0 0 128 135" style="enable-background:new 0 0 128 135;" xml:space="preserve">
<style type="text/css">
	.st0{clip-path:url(#SVGID_2_);}
	.st1{clip-path:url(#SVGID_4_);fill:#9B9B9B;}
	.st2{clip-path:url(#SVGID_6_);}
	.st3{clip-path:url(#SVGID_8_);fill:#9B9B9B;}
	.st4{clip-path:url(#SVGID_10_);}
	.st5{clip-path:url(#SVGID_12_);fill:#9B9B9B;}
	.st6{clip-path:url(#SVGID_14_);}
	.st7{clip-path:url(#SVGID_16_);fill:#9B9B9B;}
	.st8{clip-path:url(#SVGID_18_);}
	.st9{clip-path:url(#SVGID_20_);fill:#9B9B9B;}
	.st10{clip-path:url(#SVGID_22_);}
	.st11{clip-path:url(#SVGID_24_);fill:#9B9B9B;}
	.st12{clip-path:url(#SVGID_26_);}
	.st13{clip-path:url(#SVGID_28_);fill:#9B9B9B;}
	.st14{clip-path:url(#SVGID_30_);}
	.st15{clip-path:url(#SVGID_32_);fill:#9B9B9B;}
	.st16{clip-path:url(#SVGID_34_);}
	.st17{clip-path:url(#SVGID_36_);enable-background:new    ;}
	.st18{clip-path:url(#SVGID_38_);}
	.st19{clip-path:url(#SVGID_40_);}
	.st20{clip-path:url(#SVGID_42_);fill:#9B9B9B;}
	.st21{clip-path:url(#SVGID_44_);}
	.st22{clip-path:url(#SVGID_46_);fill:#9B9B9B;}
	.st23{clip-path:url(#SVGID_48_);}
	.st24{clip-path:url(#SVGID_50_);fill:#9B9B9B;}
	.st25{clip-path:url(#SVGID_52_);}
	.st26{clip-path:url(#SVGID_54_);fill:#9B9B9B;}
	.st27{clip-path:url(#SVGID_56_);}
	.st28{clip-path:url(#SVGID_58_);fill:#9B9B9B;}
	.st29{clip-path:url(#SVGID_60_);}
	.st30{clip-path:url(#SVGID_62_);fill:#9B9B9B;}
	.st31{clip-path:url(#SVGID_64_);}
	.st32{clip-path:url(#SVGID_66_);fill:#9B9B9B;}
	.st33{clip-path:url(#SVGID_68_);}
	.st34{clip-path:url(#SVGID_70_);fill:#9B9B9B;}
	.st35{clip-path:url(#SVGID_72_);}
	.st36{clip-path:url(#SVGID_74_);fill:#2E2F2C;}
	.st37{clip-path:url(#SVGID_76_);}
	.st38{clip-path:url(#SVGID_78_);fill:#2E2F2C;}
	.st39{clip-path:url(#SVGID_80_);}
	.st40{clip-path:url(#SVGID_82_);fill:#2E2F2C;}
	.st41{clip-path:url(#SVGID_84_);}
	.st42{clip-path:url(#SVGID_86_);enable-background:new    ;}
	.st43{clip-path:url(#SVGID_88_);}
	.st44{clip-path:url(#SVGID_90_);}
	.st45{clip-path:url(#SVGID_92_);fill:#4A4A4A;}
	.st46{clip-path:url(#SVGID_94_);}
	.st47{clip-path:url(#SVGID_96_);fill:#4A4A4A;}
	.st48{clip-path:url(#SVGID_98_);}
	.st49{clip-path:url(#SVGID_100_);fill:#4A4A4A;}
	.st50{clip-path:url(#SVGID_102_);}
	.st51{clip-path:url(#SVGID_104_);fill:#4A4A4A;}
	.st52{clip-path:url(#SVGID_106_);}
	.st53{clip-path:url(#SVGID_108_);fill:#4A4A4A;}
	.st54{clip-path:url(#SVGID_110_);}
	.st55{clip-path:url(#SVGID_112_);enable-background:new    ;}
	.st56{clip-path:url(#SVGID_114_);}
	.st57{clip-path:url(#SVGID_116_);}
	.st58{clip-path:url(#SVGID_118_);fill:#4A4A4A;}
	.st59{clip-path:url(#SVGID_120_);}
	.st60{clip-path:url(#SVGID_122_);fill:#4A4A4A;}
	.st61{clip-path:url(#SVGID_124_);}
	.st62{clip-path:url(#SVGID_126_);fill:#4A4A4A;}
	.st63{clip-path:url(#SVGID_128_);}
	.st64{clip-path:url(#SVGID_130_);fill:#4A4A4A;}
	.st65{clip-path:url(#SVGID_132_);}
	.st66{clip-path:url(#SVGID_134_);fill:#4A4A4A;}
</style>
<g>
	<defs>
		<path id="SVGID_1_" d="M29.6,130.4c0,0.3,0,0.7-0.1,1L31,129l-0.2-0.8l1.4-0.2l0.5,3.3l0.7-2.1c0.1-0.2,0.1-0.4,0.1-0.5
			c0-0.2,0-0.3-0.1-0.5l1.5-0.3c0.1,0.3,0.1,0.5,0.1,0.8c0,0.3-0.1,0.7-0.4,1.2l-1.2,3h-1.8l-0.4-2.2l-1.4,2.2h-1.7
			c0.1-2.1,0-3.4-0.2-4.7l1.5-0.2C29.6,128.8,29.7,129.6,29.6,130.4"/>
	</defs>
	<clipPath id="SVGID_2_">
		<use xlink:href="#SVGID_1_"  style="overflow:visible;"/>
	</clipPath>
	<g class="st0">
		<defs>
			<rect id="SVGID_3_" x="-768" y="-720" width="1024" height="2054"/>
		</defs>
		<clipPath id="SVGID_4_">
			<use xlink:href="#SVGID_3_"  style="overflow:visible;"/>
		</clipPath>
		<rect x="23" y="123" class="st1" width="17" height="15"/>
	</g>
</g>
<g>
	<defs>
		<path id="SVGID_5_" d="M39,129.3c-0.7,0.3-1,0.5-1.7,0.8l-0.7,2.9H35l1.1-4.8l1.4-0.2l-0.1,0.7c0.6-0.3,1-0.5,1.5-0.7L39,129.3"/>
	</defs>
	<clipPath id="SVGID_6_">
		<use xlink:href="#SVGID_5_"  style="overflow:visible;"/>
	</clipPath>
	<g class="st2">
		<defs>
			<rect id="SVGID_7_" x="-768" y="-720" width="1024" height="2054"/>
		</defs>
		<clipPath id="SVGID_8_">
			<use xlink:href="#SVGID_7_"  style="overflow:visible;"/>
		</clipPath>
		<rect x="30" y="123" class="st3" width="14" height="15"/>
	</g>
</g>
<g>
	<defs>
		<path id="SVGID_9_" d="M40,127.6l1.5-0.2l-1.1,5.6H39L40,127.6z M40.5,125.2L42,125l-0.3,1.7l-1.5,0.2L40.5,125.2z"/>
	</defs>
	<clipPath id="SVGID_10_">
		<use xlink:href="#SVGID_9_"  style="overflow:visible;"/>
	</clipPath>
	<g class="st4">
		<defs>
			<rect id="SVGID_11_" x="-768" y="-720" width="1024" height="2054"/>
		</defs>
		<clipPath id="SVGID_12_">
			<use xlink:href="#SVGID_11_"  style="overflow:visible;"/>
		</clipPath>
		<rect x="34" y="120" class="st5" width="13" height="18"/>
	</g>
</g>
<g>
	<defs>
		<path id="SVGID_13_" d="M44.4,129.8l-0.6,2.7c0,0.1,0,0.1,0,0.1c0,0.1,0,0.1,0.2,0.1c0.3,0,0.6-0.1,0.9-0.2l0.3,1.1
			c-0.5,0.2-1.1,0.4-1.8,0.4c-0.8,0-1.2-0.4-1.2-1c0-0.1,0-0.2,0-0.2l0.7-3H42l0.3-1.2h0.8l0.3-1.3L45,127l-0.3,1.5H46l-0.4,1.2
			H44.4"/>
	</defs>
	<clipPath id="SVGID_14_">
		<use xlink:href="#SVGID_13_"  style="overflow:visible;"/>
	</clipPath>
	<g class="st6">
		<defs>
			<rect id="SVGID_15_" x="-768" y="-720" width="1024" height="2054"/>
		</defs>
		<clipPath id="SVGID_16_">
			<use xlink:href="#SVGID_15_"  style="overflow:visible;"/>
		</clipPath>
		<rect x="37" y="122" class="st7" width="14" height="17"/>
	</g>
</g>
<g>
	<defs>
		<path id="SVGID_17_" d="M45.4,129.8c0.3-1.1,0.9-1.8,2.7-1.8c1.1,0,1.9,0.4,1.9,1.2c0,0.9-0.6,1.4-2.1,1.7
			c-0.7,0.2-0.7,0.2-1.2,0.3l-0.1,0.3c0,0.2,0,0.3,0.3,0.3c0.6,0,1.5-0.2,2.3-0.5l0.3,1c-0.7,0.4-1.8,0.7-2.8,0.7
			c-1.2,0-1.7-0.4-1.6-1.3c0-0.2,0-0.4,0.1-0.6L45.4,129.8z M48.5,129.4c0-0.2-0.2-0.3-0.5-0.3c-0.6,0-0.8,0.3-0.9,0.7l-0.1,0.3
			c0.3-0.1,0.4-0.1,0.8-0.2C48.2,129.8,48.4,129.6,48.5,129.4z"/>
	</defs>
	<clipPath id="SVGID_18_">
		<use xlink:href="#SVGID_17_"  style="overflow:visible;"/>
	</clipPath>
	<g class="st8">
		<defs>
			<rect id="SVGID_19_" x="-768" y="-720" width="1024" height="2054"/>
		</defs>
		<clipPath id="SVGID_20_">
			<use xlink:href="#SVGID_19_"  style="overflow:visible;"/>
		</clipPath>
		<rect x="40" y="123" class="st9" width="15" height="15"/>
	</g>
</g>
<g>
	<defs>
		<polyline id="SVGID_21_" points="54.5,125.2 56,125 54.5,133 53,133 54.5,125.2 		"/>
	</defs>
	<clipPath id="SVGID_22_">
		<use xlink:href="#SVGID_21_"  style="overflow:visible;"/>
	</clipPath>
	<g class="st10">
		<defs>
			<rect id="SVGID_23_" x="-768" y="-720" width="1024" height="2054"/>
		</defs>
		<clipPath id="SVGID_24_">
			<use xlink:href="#SVGID_23_"  style="overflow:visible;"/>
		</clipPath>
		<rect x="48" y="120" class="st11" width="13" height="18"/>
	</g>
</g>
<g>
	<defs>
		<path id="SVGID_25_" d="M56.4,129.8c0.3-1.1,0.9-1.8,2.7-1.8c1.1,0,1.9,0.4,1.9,1.2c0,0.9-0.6,1.4-2.1,1.7
			c-0.7,0.2-0.7,0.2-1.2,0.3l-0.1,0.3c0,0.2,0,0.3,0.3,0.3c0.6,0,1.5-0.2,2.3-0.5l0.3,1c-0.7,0.4-1.8,0.7-2.8,0.7
			c-1.2,0-1.7-0.4-1.6-1.3c0-0.2,0-0.4,0.1-0.6L56.4,129.8z M59.5,129.4c0-0.2-0.2-0.3-0.5-0.3c-0.6,0-0.8,0.3-0.9,0.7l-0.1,0.3
			c0.3-0.1,0.4-0.1,0.8-0.2C59.2,129.8,59.4,129.6,59.5,129.4z"/>
	</defs>
	<clipPath id="SVGID_26_">
		<use xlink:href="#SVGID_25_"  style="overflow:visible;"/>
	</clipPath>
	<g class="st12">
		<defs>
			<rect id="SVGID_27_" x="-768" y="-720" width="1024" height="2054"/>
		</defs>
		<clipPath id="SVGID_28_">
			<use xlink:href="#SVGID_27_"  style="overflow:visible;"/>
		</clipPath>
		<rect x="51" y="123" class="st13" width="15" height="15"/>
	</g>
</g>
<g>
	<defs>
		<path id="SVGID_29_" d="M60,132.7l0.3-1c0.4,0.1,0.8,0.2,1.3,0.2c0.5,0,0.5-0.1,0.6-0.4c0-0.2-0.1-0.3-0.6-0.6
			c-1-0.5-1-0.9-0.9-1.6c0.2-1,0.5-1.3,1.9-1.3c0.5,0,1,0.1,1.4,0.2l-0.3,1c-0.4-0.1-0.9-0.2-1.2-0.2c-0.4,0-0.5,0-0.5,0.3
			c0,0.2,0,0.3,0.5,0.5c1.1,0.6,1.3,0.8,1.1,1.6c-0.2,1.1-0.6,1.5-2,1.5C61,133,60.4,132.9,60,132.7"/>
	</defs>
	<clipPath id="SVGID_30_">
		<use xlink:href="#SVGID_29_"  style="overflow:visible;"/>
	</clipPath>
	<g class="st14">
		<defs>
			<rect id="SVGID_31_" x="-768" y="-720" width="1024" height="2054"/>
		</defs>
		<clipPath id="SVGID_32_">
			<use xlink:href="#SVGID_31_"  style="overflow:visible;"/>
		</clipPath>
		<rect x="55" y="123" class="st15" width="14" height="15"/>
	</g>
</g>
<g>
	<defs>
		<rect id="SVGID_33_" x="65" y="127.4" width="6.9" height="7.6"/>
	</defs>
	<clipPath id="SVGID_34_">
		<use xlink:href="#SVGID_33_"  style="overflow:visible;"/>
	</clipPath>
	<g class="st16">
		<defs>
			<rect id="SVGID_35_" x="-768" y="-720" width="1024" height="2054"/>
		</defs>
		<clipPath id="SVGID_36_">
			<use xlink:href="#SVGID_35_"  style="overflow:visible;"/>
		</clipPath>
		<g class="st17">
			<g>
				<defs>
					<rect id="SVGID_37_" x="65" y="127" width="7" height="8"/>
				</defs>
				<clipPath id="SVGID_38_">
					<use xlink:href="#SVGID_37_"  style="overflow:visible;"/>
				</clipPath>
				<g class="st18">
					<defs>
						<path id="SVGID_39_" d="M65,133l0.4-1.2c0.4,0.2,0.9,0.3,1.5,0.3c0.6,0,0.6-0.2,0.7-0.4c0.1-0.3-0.1-0.4-0.7-0.7
							c-1.2-0.6-1.2-1.1-1-1.9c0.3-1.2,0.6-1.6,2.2-1.6c0.5,0,1.2,0.1,1.7,0.3l-0.3,1.2c-0.4-0.1-1-0.2-1.4-0.2
							c-0.5,0-0.6,0.1-0.6,0.4c-0.1,0.3,0,0.3,0.5,0.6c1.3,0.7,1.5,1,1.3,1.9c-0.3,1.3-0.7,1.8-2.4,1.8
							C66.3,133.4,65.5,133.2,65,133"/>
					</defs>
					<clipPath id="SVGID_40_">
						<use xlink:href="#SVGID_39_"  style="overflow:visible;"/>
					</clipPath>
					<g class="st19">
						<defs>
							<rect id="SVGID_41_" x="65" y="127" width="7" height="8"/>
						</defs>
						<clipPath id="SVGID_42_">
							<use xlink:href="#SVGID_41_"  style="overflow:visible;"/>
						</clipPath>
						<rect x="60" y="122.4" class="st20" width="14.7" height="16"/>
					</g>
				</g>
				<g class="st18">
					<defs>
						<polyline id="SVGID_43_" points="69.6,134.5 70.5,133.2 69.9,133.2 70.3,131.3 72,131.3 71.5,133.4 70.2,135 69.6,134.5 
													"/>
					</defs>
					<clipPath id="SVGID_44_">
						<use xlink:href="#SVGID_43_"  style="overflow:visible;"/>
					</clipPath>
					<g class="st21">
						<defs>
							<rect id="SVGID_45_" x="65" y="127" width="7" height="8"/>
						</defs>
						<clipPath id="SVGID_46_">
							<use xlink:href="#SVGID_45_"  style="overflow:visible;"/>
						</clipPath>
						<rect x="64.6" y="126.3" class="st22" width="12.4" height="13.7"/>
					</g>
				</g>
			</g>
		</g>
	</g>
</g>
<g>
	<defs>
		<path id="SVGID_47_" d="M78,132.9l0-0.5c-0.4,0.3-1,0.6-1.7,0.6c-1.2,0-1.4-0.7-1.2-1.9l0.3-1.5c0.3-1.3,0.6-2.3,2.9-2.3
			c0.2,0,0.5,0,0.7,0.1l0.5-2.2L81,125l-1.6,7.9H78z M76.6,131.3c-0.1,0.3,0,0.4,0.3,0.4c0.6,0,1-0.3,1.3-0.6l0.5-2.4
			c-0.2,0-0.4,0-0.6,0c-0.8,0-1,0.4-1.1,1L76.6,131.3z"/>
	</defs>
	<clipPath id="SVGID_48_">
		<use xlink:href="#SVGID_47_"  style="overflow:visible;"/>
	</clipPath>
	<g class="st23">
		<defs>
			<rect id="SVGID_49_" x="-768" y="-720" width="1024" height="2054"/>
		</defs>
		<clipPath id="SVGID_50_">
			<use xlink:href="#SVGID_49_"  style="overflow:visible;"/>
		</clipPath>
		<rect x="70" y="120" class="st24" width="16" height="18"/>
	</g>
</g>
<g>
	<defs>
		<path id="SVGID_51_" d="M80,131.4c0-0.1,0-0.2,0-0.3l0.3-1.1c0.3-1.2,1-1.9,2.7-1.9c1.4,0,2,0.7,2,1.6c0,0.1,0,0.2,0,0.3l-0.3,1.1
			c-0.3,1.2-0.9,1.9-2.8,1.9C80.6,133,80,132.3,80,131.4z M83.5,129.7c0-0.4-0.2-0.5-0.7-0.5c-0.6,0-0.9,0.3-1,0.7l-0.3,1.2
			c0,0.1,0,0.1,0,0.2c0,0.3,0.2,0.5,0.7,0.5c0.6,0,0.9-0.3,1-0.7l0.3-1.2C83.5,129.8,83.5,129.8,83.5,129.7z"/>
	</defs>
	<clipPath id="SVGID_52_">
		<use xlink:href="#SVGID_51_"  style="overflow:visible;"/>
	</clipPath>
	<g class="st25">
		<defs>
			<rect id="SVGID_53_" x="-768" y="-720" width="1024" height="2054"/>
		</defs>
		<clipPath id="SVGID_54_">
			<use xlink:href="#SVGID_53_"  style="overflow:visible;"/>
		</clipPath>
		<rect x="75" y="123" class="st26" width="15" height="15"/>
	</g>
</g>
<g>
	<defs>
		<path id="SVGID_55_" d="M94.5,129.7c0-0.1,0-0.1,0-0.2c0-0.1,0-0.1-0.2-0.1c-0.3,0-0.9,0.3-1.3,0.5l-0.7,3.1h-1.4l0.7-3.3
			c0-0.1,0-0.1,0-0.2c0-0.1,0-0.1-0.2-0.1c-0.3,0-0.9,0.3-1.3,0.5l-0.7,3.2H88l1-4.8l1.3-0.2l0,0.5c0.8-0.4,1.4-0.6,2-0.6
			c0.5,0,0.7,0.2,0.8,0.6c0.8-0.4,1.5-0.6,2-0.6c0.7,0,0.9,0.4,0.9,1c0,0.2,0,0.4-0.1,0.6l-0.7,3.4h-1.4L94.5,129.7"/>
	</defs>
	<clipPath id="SVGID_56_">
		<use xlink:href="#SVGID_55_"  style="overflow:visible;"/>
	</clipPath>
	<g class="st27">
		<defs>
			<rect id="SVGID_57_" x="-768" y="-720" width="1024" height="2054"/>
		</defs>
		<clipPath id="SVGID_58_">
			<use xlink:href="#SVGID_57_"  style="overflow:visible;"/>
		</clipPath>
		<rect x="83" y="123" class="st28" width="18" height="15"/>
	</g>
</g>
<g>
	<defs>
		<path id="SVGID_59_" d="M97,131.4c0-0.1,0-0.2,0-0.3l0.3-1.1c0.3-1.2,1-1.9,2.7-1.9c1.4,0,2,0.7,1.9,1.6c0,0.1,0,0.2,0,0.3
			l-0.3,1.1c-0.3,1.2-0.9,1.9-2.8,1.9C97.6,133,97,132.3,97,131.4z M100.5,129.7c0-0.4-0.2-0.5-0.7-0.5c-0.6,0-0.9,0.3-1,0.7
			l-0.3,1.2c0,0.1,0,0.1,0,0.2c0,0.3,0.2,0.5,0.7,0.5c0.6,0,0.9-0.3,1-0.7l0.3-1.2C100.5,129.8,100.5,129.8,100.5,129.7z"/>
	</defs>
	<clipPath id="SVGID_60_">
		<use xlink:href="#SVGID_59_"  style="overflow:visible;"/>
	</clipPath>
	<g class="st29">
		<defs>
			<rect id="SVGID_61_" x="-768" y="-720" width="1024" height="2054"/>
		</defs>
		<clipPath id="SVGID_62_">
			<use xlink:href="#SVGID_61_"  style="overflow:visible;"/>
		</clipPath>
		<rect x="92" y="123" class="st30" width="15" height="15"/>
	</g>
</g>
<g>
	<defs>
		<path id="SVGID_63_" d="M107,129.3c-0.7,0.3-1,0.5-1.7,0.8l-0.7,2.9H103l1.1-4.8l1.4-0.2l-0.1,0.7c0.6-0.3,1-0.5,1.5-0.7
			L107,129.3"/>
	</defs>
	<clipPath id="SVGID_64_">
		<use xlink:href="#SVGID_63_"  style="overflow:visible;"/>
	</clipPath>
	<g class="st31">
		<defs>
			<rect id="SVGID_65_" x="-768" y="-720" width="1024" height="2054"/>
		</defs>
		<clipPath id="SVGID_66_">
			<use xlink:href="#SVGID_65_"  style="overflow:visible;"/>
		</clipPath>
		<rect x="98" y="123" class="st32" width="14" height="15"/>
	</g>
</g>
<g>
	<defs>
		<path id="SVGID_67_" d="M107.4,129.8c0.3-1.1,0.9-1.8,2.7-1.8c1.1,0,1.9,0.4,1.9,1.2c0,0.9-0.6,1.4-2.1,1.7
			c-0.7,0.2-0.7,0.2-1.2,0.3l-0.1,0.3c0,0.2,0,0.3,0.3,0.3c0.6,0,1.5-0.2,2.3-0.5l0.3,1c-0.7,0.4-1.8,0.7-2.8,0.7
			c-1.2,0-1.7-0.4-1.6-1.3c0-0.2,0-0.4,0.1-0.6L107.4,129.8z M110.5,129.4c0-0.2-0.2-0.3-0.5-0.3c-0.6,0-0.8,0.3-0.9,0.7l-0.1,0.3
			c0.3-0.1,0.4-0.1,0.8-0.2C110.2,129.8,110.4,129.6,110.5,129.4z"/>
	</defs>
	<clipPath id="SVGID_68_">
		<use xlink:href="#SVGID_67_"  style="overflow:visible;"/>
	</clipPath>
	<g class="st33">
		<defs>
			<rect id="SVGID_69_" x="-768" y="-720" width="1024" height="2054"/>
		</defs>
		<clipPath id="SVGID_70_">
			<use xlink:href="#SVGID_69_"  style="overflow:visible;"/>
		</clipPath>
		<rect x="102" y="123" class="st34" width="15" height="15"/>
	</g>
</g>
<g>
	<defs>
		<path id="SVGID_71_" d="M109.1,104l0.2,0.7c0.1,0.2-0.1,0.3-0.3,0.3"/>
	</defs>
	<clipPath id="SVGID_72_">
		<use xlink:href="#SVGID_71_"  style="overflow:visible;"/>
	</clipPath>
	<g class="st35">
		<defs>
			<rect id="SVGID_73_" x="-768" y="-720" width="1024" height="2054"/>
		</defs>
		<clipPath id="SVGID_74_">
			<use xlink:href="#SVGID_73_"  style="overflow:visible;"/>
		</clipPath>
		<rect x="104" y="99" class="st36" width="10.3" height="11"/>
	</g>
</g>
<g>
	<defs>
		<path id="SVGID_75_" d="M93,102c-0.1,0.3-0.1,0.6-0.2,0.8L91,112l1.9-9.7L93,102"/>
	</defs>
	<clipPath id="SVGID_76_">
		<use xlink:href="#SVGID_75_"  style="overflow:visible;"/>
	</clipPath>
	<g class="st37">
		<defs>
			<rect id="SVGID_77_" x="-768" y="-720" width="1024" height="2054"/>
		</defs>
		<clipPath id="SVGID_78_">
			<use xlink:href="#SVGID_77_"  style="overflow:visible;"/>
		</clipPath>
		<rect x="86" y="97" class="st38" width="12" height="20"/>
	</g>
</g>
<g>
	<defs>
		<polyline id="SVGID_79_" points="36.5,109 36,112 36.5,109 36.5,109 		"/>
	</defs>
	<clipPath id="SVGID_80_">
		<use xlink:href="#SVGID_79_"  style="overflow:visible;"/>
	</clipPath>
	<g class="st39">
		<defs>
			<rect id="SVGID_81_" x="-768" y="-720" width="1024" height="2054"/>
		</defs>
		<clipPath id="SVGID_82_">
			<use xlink:href="#SVGID_81_"  style="overflow:visible;"/>
		</clipPath>
		<rect x="31" y="104" class="st40" width="10.5" height="13"/>
	</g>
</g>
<g>
	<defs>
		<rect id="SVGID_83_" x="88.3" y="96.3" width="39.3" height="25.3"/>
	</defs>
	<clipPath id="SVGID_84_">
		<use xlink:href="#SVGID_83_"  style="overflow:visible;"/>
	</clipPath>
	<g class="st41">
		<defs>
			<rect id="SVGID_85_" x="-768" y="-720" width="1024" height="2054"/>
		</defs>
		<clipPath id="SVGID_86_">
			<use xlink:href="#SVGID_85_"  style="overflow:visible;"/>
		</clipPath>
		<g class="st42">
			<g>
				<defs>
					<rect id="SVGID_87_" x="88" y="96" width="40" height="26"/>
				</defs>
				<clipPath id="SVGID_88_">
					<use xlink:href="#SVGID_87_"  style="overflow:visible;"/>
				</clipPath>
				<g class="st43">
					<defs>
						<path id="SVGID_89_" d="M109.7,104.7l-0.5-2.3c-0.4-1.7-1.6-2.4-4.4-2.4H93.3c-0.3,0-0.5,0.1-0.6,0.4l-4.4,20.6
							c-0.1,0.3-0.1,0.4,0,0.6c0,0.1,0.5,0.1,0.8,0.1h4c0.3,0,0.7,0,0.9,0c0.1-0.1,0.2-0.5,0.3-0.7l1.4-7.2l1.7-8
							c0.1-0.3,0.3-0.5,0.6-0.5l11.4,0C109.6,105.1,109.7,104.9,109.7,104.7"/>
					</defs>
					<clipPath id="SVGID_90_">
						<use xlink:href="#SVGID_89_"  style="overflow:visible;"/>
					</clipPath>
					<g class="st44">
						<defs>
							<rect id="SVGID_91_" x="88" y="96" width="40" height="26"/>
						</defs>
						<clipPath id="SVGID_92_">
							<use xlink:href="#SVGID_91_"  style="overflow:visible;"/>
						</clipPath>
						<rect x="83.3" y="94.9" class="st45" width="31.4" height="31.6"/>
					</g>
				</g>
				<g class="st43">
					<defs>
						<path id="SVGID_93_" d="M125.8,96.3c-0.3,0-5,0-5,0c-0.3,0-0.6,0.3-0.8,0.5l-8.8,13c-0.2,0.2-0.3,0.2-0.4,0l-0.7-2.8
							c-0.1-0.3-0.3-0.5-0.6-0.5h-5.7c-0.3,0-0.4,0.2-0.4,0.5l2.5,8.9c0.1,0.3,0.1,0.7,0,0.9l-1.2,4.5c-0.1,0.3,0.1,0.3,0.4,0.3h5.6
							c0.3,0,0.5-0.1,0.6-0.3l1.2-4.6c0.1-0.3,0.2-0.6,0.4-0.8l14.4-19.1c0.2-0.2,0.1-0.5-0.1-0.5L125.8,96.3"/>
					</defs>
					<clipPath id="SVGID_94_">
						<use xlink:href="#SVGID_93_"  style="overflow:visible;"/>
					</clipPath>
					<g class="st46">
						<defs>
							<rect id="SVGID_95_" x="88" y="96" width="40" height="26"/>
						</defs>
						<clipPath id="SVGID_96_">
							<use xlink:href="#SVGID_95_"  style="overflow:visible;"/>
						</clipPath>
						<rect x="98.5" y="91.3" class="st47" width="34.1" height="35.3"/>
					</g>
				</g>
			</g>
		</g>
	</g>
</g>
<g>
	<defs>
		<path id="SVGID_97_" d="M67,100h-5c-0.3,0-0.5,0.1-0.6,0.3l-1.7,7.7l-1.6,7.4c-0.1,0.2-0.3,0.2-0.6,0.2h-3.3c-3.3,0-2.9-2-2.2-5.1
			c0,0,2.1-10.2,2.1-10.2c0-0.3-0.1-0.3-0.4-0.3h-4.8c-0.3,0-0.5,0.1-0.6,0.3l-1.9,10.2c-1,5.5-1,10.3,5.4,10.5c0.1,0,10.1,0,10.1,0
			c0.3,0,0.5-0.1,0.6-0.3l2.2-10.2l2.2-10.2C67,100.2,67,100,67,100"/>
	</defs>
	<clipPath id="SVGID_98_">
		<use xlink:href="#SVGID_97_"  style="overflow:visible;"/>
	</clipPath>
	<g class="st48">
		<defs>
			<rect id="SVGID_99_" x="-768" y="-720" width="1024" height="2054"/>
		</defs>
		<clipPath id="SVGID_100_">
			<use xlink:href="#SVGID_99_"  style="overflow:visible;"/>
		</clipPath>
		<rect x="41" y="95" class="st49" width="31" height="31"/>
	</g>
</g>
<g>
	<defs>
		<path id="SVGID_101_" d="M16.9,100h-5.3c-0.3,0-0.5,0.1-0.6,0.3l-1,4.2c-0.1,0.3,0.1,0.5,0.4,0.5h5.1c0.3,0,0.5-0.2,0.6-0.5
			l0.9-4.3C17,100.2,17.1,100,16.9,100"/>
	</defs>
	<clipPath id="SVGID_102_">
		<use xlink:href="#SVGID_101_"  style="overflow:visible;"/>
	</clipPath>
	<g class="st50">
		<defs>
			<rect id="SVGID_103_" x="-768" y="-720" width="1024" height="2054"/>
		</defs>
		<clipPath id="SVGID_104_">
			<use xlink:href="#SVGID_103_"  style="overflow:visible;"/>
		</clipPath>
		<rect x="5" y="95" class="st51" width="17" height="15"/>
	</g>
</g>
<g>
	<defs>
		<path id="SVGID_105_" d="M9.6,107c-0.3,0-0.5,0.2-0.6,0.5l-0.7,3.2l-1.6,7.5c0,0-0.8,4-0.9,4.2c0,0-0.7,2.9-2.4,2.8
			c-0.8-0.1-1.7-0.2-1.7-0.2c-0.5-0.1-0.5,0.4-0.6,0.6L0,130.2c-0.1,0.3,0.1,0.5,0.4,0.5c0,0,2.3,0.3,3.9,0.3h0.3
			c4,0,6.1-2.4,7.4-8.9l1.6-7.5l1.5-7c0.1-0.3-0.1-0.5-0.3-0.5"/>
	</defs>
	<clipPath id="SVGID_106_">
		<use xlink:href="#SVGID_105_"  style="overflow:visible;"/>
	</clipPath>
	<g class="st52">
		<defs>
			<rect id="SVGID_107_" x="-768" y="-720" width="1024" height="2054"/>
		</defs>
		<clipPath id="SVGID_108_">
			<use xlink:href="#SVGID_107_"  style="overflow:visible;"/>
		</clipPath>
		<rect x="-5" y="102" class="st53" width="25" height="34"/>
	</g>
</g>
<g>
	<defs>
		<rect id="SVGID_109_" x="17.2" y="94.1" width="70.4" height="27.4"/>
	</defs>
	<clipPath id="SVGID_110_">
		<use xlink:href="#SVGID_109_"  style="overflow:visible;"/>
	</clipPath>
	<g class="st54">
		<defs>
			<rect id="SVGID_111_" x="-768" y="-720" width="1024" height="2054"/>
		</defs>
		<clipPath id="SVGID_112_">
			<use xlink:href="#SVGID_111_"  style="overflow:visible;"/>
		</clipPath>
		<g class="st55">
			<g>
				<defs>
					<rect id="SVGID_113_" x="16" y="94" width="73" height="28"/>
				</defs>
				<clipPath id="SVGID_114_">
					<use xlink:href="#SVGID_113_"  style="overflow:visible;"/>
				</clipPath>
				<g class="st56">
					<defs>
						<path id="SVGID_115_" d="M79.7,100.2c-9.1,0-11.3,5.6-12.5,11.2c-1.2,5.7-1.1,10.2,8.3,10.2h0.3c3.8,0,8.3,0,8.3,0
							c0.3,0,0.5-0.2,0.6-0.5l0.9-3.6c0.1-0.3-0.1-0.3-0.4-0.3h-8.5c-3.1,0-4.2-0.9-4.1-3.1c0-0.2,0.3-0.9,0.5-0.9h13.1
							c0.6,0,0.6-0.3,0.6-0.3C88.3,106.9,88.4,100.2,79.7,100.2 M82.1,109.1c0,0.3-0.9,0.2-0.9,0.2l-7.1-0.1c-0.2,0-0.3-0.3-0.3-0.6
							c0,0,0-0.3,0-0.4c0.6-1.9,2.2-3,4.8-3c2.9,0,3.6,1.5,3.6,3.1"/>
					</defs>
					<clipPath id="SVGID_116_">
						<use xlink:href="#SVGID_115_"  style="overflow:visible;"/>
					</clipPath>
					<g class="st57">
						<defs>
							<rect id="SVGID_117_" x="17" y="94" width="71" height="28"/>
						</defs>
						<clipPath id="SVGID_118_">
							<use xlink:href="#SVGID_117_"  style="overflow:visible;"/>
						</clipPath>
						<rect x="61.6" y="95.2" class="st58" width="31" height="31.4"/>
					</g>
				</g>
				<g class="st56">
					<defs>
						<path id="SVGID_119_" d="M40.2,115.7c0,0,2.6-6.2,3.1-9.8c0.8-4.8-1.6-11.8-10.9-11.8c-9.2,0-13.3,6.6-14.8,13.9
							c-1.5,7.3,0.5,13.6,9.7,13.6l14,0c0.3,0,0.5-0.2,0.6-0.5l1.2-4.5c0.1-0.3-0.1-0.5-0.4-0.5l-1.1,0l-1.1,0
							c-0.2,0-0.4-0.1-0.3-0.3C40.2,115.8,40.2,115.7,40.2,115.7z M35.4,111.9l-1.1,3.6c-0.1,0.3-0.4,0.4-0.6,0.4h-5.4
							c-4.1,0-5.1-3.2-4.1-7.9c1-4.9,3-7.9,7.1-8.2c5.5-0.4,6.7,3.5,5.3,8L35.4,111.9z"/>
					</defs>
					<clipPath id="SVGID_120_">
						<use xlink:href="#SVGID_119_"  style="overflow:visible;"/>
					</clipPath>
					<g class="st59">
						<defs>
							<rect id="SVGID_121_" x="17" y="94" width="71" height="28"/>
						</defs>
						<clipPath id="SVGID_122_">
							<use xlink:href="#SVGID_121_"  style="overflow:visible;"/>
						</clipPath>
						<rect x="12.2" y="89.1" class="st60" width="36.3" height="37.4"/>
					</g>
				</g>
			</g>
		</g>
	</g>
</g>
<g>
	<defs>
		<path id="SVGID_123_" d="M26.5,18.5c-7.7,11-6.8,25.2-0.9,36.8c0.1,0.3,0.3,0.6,0.4,0.8c0.1,0.2,0.2,0.4,0.3,0.5
			c0,0.1,0.1,0.2,0.2,0.3c0.1,0.2,0.2,0.4,0.3,0.5c0.2,0.3,0.4,0.6,0.6,1c0.1,0.2,0.2,0.3,0.3,0.5c0.2,0.3,0.4,0.7,0.6,1
			c0.1,0.1,0.2,0.3,0.3,0.4c0.3,0.5,0.6,0.9,0.9,1.3c0,0,0,0,0,0c0.1,0.1,0.1,0.1,0.2,0.2c0.3,0.4,0.6,0.8,0.9,1.1
			c0.1,0.1,0.2,0.3,0.3,0.4c0.3,0.3,0.5,0.6,0.8,1c0.1,0.1,0.2,0.2,0.3,0.4c0.4,0.4,0.7,0.8,1.1,1.3c0,0,0,0,0,0c0,0,0,0,0.1,0
			c0.4,0.4,0.7,0.8,1.1,1.2c0.1,0.1,0.2,0.2,0.4,0.4c0.3,0.3,0.6,0.6,0.9,0.9c0.1,0.1,0.3,0.2,0.4,0.3c0.4,0.4,0.8,0.7,1.2,1.1
			c0,0,0,0,0,0c0.1,0.1,0.1,0.1,0.2,0.2c0.4,0.3,0.7,0.6,1.1,0.9c0.2,0.1,0.3,0.2,0.5,0.4c0.3,0.2,0.6,0.5,0.9,0.7
			c0.2,0.1,0.3,0.2,0.5,0.4c0.3,0.3,0.7,0.5,1,0.7c0.1,0.1,0.3,0.2,0.4,0.3c0,0,0.1,0.1,0.1,0.1c0.3,0.2,0.7,0.4,1,0.7
			c0.2,0.1,0.3,0.2,0.4,0.3c0.5,0.3,1.1,0.7,1.6,1c0.2,0.1,0.3,0.2,0.4,0.2c0.4,0.2,0.8,0.4,1.2,0.7c0.2,0.1,0.4,0.2,0.7,0.3
			c0.3,0.1,0.6,0.3,0.8,0.4c0.1,0,0.1,0.1,0.2,0.1c0.1,0.1,0.2,0.1,0.3,0.2c0.4,0.2,0.9,0.4,1.4,0.6c0.1,0,0.2,0.1,0.3,0.1
			c0.5,0.2,1,0.4,1.6,0.6c0.1,0,0.3,0.1,0.4,0.1c0.5,0.2,1,0.4,1.5,0.5c0.1,0,0.1,0,0.2,0.1c0.6,0.2,1.1,0.4,1.7,0.5
			c0.1,0,0.3,0.1,0.4,0.1c0.6,0.2,1.1,0.4,1.7,0.5C95.2,87.7,106,58.8,106,58.8c-9.1,11.7-25.3,14.8-40.6,11.4
			c-0.6-0.1-1.1-0.3-1.7-0.5c-0.1,0-0.3-0.1-0.4-0.1c-0.6-0.2-1.1-0.3-1.6-0.5c-0.1,0-0.2-0.1-0.2-0.1c-0.5-0.2-1-0.3-1.4-0.5
			c-0.1-0.1-0.3-0.1-0.4-0.2c-0.5-0.2-1.1-0.4-1.6-0.6c-0.1,0-0.2-0.1-0.3-0.1c-0.4-0.2-0.9-0.4-1.3-0.6c-0.1-0.1-0.3-0.1-0.4-0.2
			c-0.3-0.2-0.7-0.3-1-0.5c-0.2-0.1-0.5-0.2-0.7-0.3c-0.4-0.2-0.8-0.5-1.2-0.7c-0.1-0.1-0.3-0.2-0.4-0.2c-0.5-0.3-1.1-0.6-1.6-1
			c-0.2-0.1-0.3-0.2-0.4-0.3c-0.4-0.2-0.8-0.5-1.1-0.7c-0.1-0.1-0.2-0.2-0.4-0.3c-0.4-0.3-0.7-0.5-1.1-0.8c-0.2-0.1-0.3-0.2-0.5-0.4
			c-0.3-0.2-0.6-0.5-1-0.7c-0.1-0.1-0.3-0.2-0.4-0.3c-0.4-0.3-0.8-0.7-1.2-1c0,0-0.1-0.1-0.1-0.1c-0.4-0.4-0.8-0.8-1.3-1.1
			c-0.1-0.1-0.2-0.2-0.4-0.3c-0.3-0.3-0.6-0.6-0.9-0.9c-0.1-0.1-0.2-0.2-0.4-0.4c-0.4-0.4-0.8-0.8-1.1-1.2c0,0,0,0-0.1-0.1
			c-0.4-0.4-0.8-0.8-1.1-1.3c-0.1-0.1-0.2-0.2-0.3-0.3c-0.3-0.3-0.5-0.7-0.8-1c-0.1-0.1-0.2-0.2-0.3-0.4c-0.3-0.4-0.6-0.8-0.9-1.2
			C28.8,39.8,25.8,24,32.6,11"/>
	</defs>
	<clipPath id="SVGID_124_">
		<use xlink:href="#SVGID_123_"  style="overflow:visible;"/>
	</clipPath>
	<g class="st61">
		<defs>
			<rect id="SVGID_125_" x="-768" y="-720" width="1024" height="2054"/>
		</defs>
		<clipPath id="SVGID_126_">
			<use xlink:href="#SVGID_125_"  style="overflow:visible;"/>
		</clipPath>
		<rect x="16" y="6" class="st62" width="95" height="81"/>
	</g>
</g>
<g>
	<defs>
		<path id="SVGID_127_" d="M50.2,10.5c-5.6,8.1-5.3,18.8-0.9,27.3c0.7,1.4,1.5,2.8,2.5,4.1c0.8,1.2,1.8,2.6,2.9,3.6
			c0.4,0.4,0.8,0.9,1.3,1.3c0.1,0.1,0.2,0.2,0.3,0.3c0.4,0.4,0.8,0.8,1.3,1.2c0,0,0,0,0.1,0c0,0,0,0,0,0c0.5,0.4,1,0.8,1.5,1.2
			c0.1,0.1,0.2,0.2,0.3,0.3c0.5,0.4,1,0.8,1.6,1.1c0,0,0,0,0.1,0c0.2,0.2,0.5,0.3,0.7,0.5c0.1,0.1,0.2,0.2,0.3,0.2
			c0.4,0.3,0.8,0.5,1.2,0.7c0.1,0,0.1,0.1,0.2,0.1c0.3,0.2,0.7,0.4,1,0.6c0.1,0.1,0.2,0.1,0.4,0.2c0.2,0.1,0.5,0.2,0.7,0.4
			c0,0,0.1,0,0.1,0.1c0.5,0.2,1,0.5,1.5,0.7c0.1,0,0.2,0.1,0.3,0.1c0.4,0.2,0.8,0.3,1.2,0.5c0.2,0.1,0.4,0.1,0.5,0.2
			c0.4,0.1,0.8,0.3,1.1,0.4c0.2,0.1,0.3,0.1,0.5,0.2c0.5,0.2,1.1,0.4,1.6,0.5c28.9,4.8,35.5-17.5,35.5-17.5
			c-6,8.7-17.7,12.8-30.1,9.6c-0.6-0.1-1.1-0.3-1.6-0.5c-0.2,0-0.3-0.1-0.5-0.2c-0.4-0.1-0.8-0.3-1.1-0.4c-0.2-0.1-0.3-0.1-0.5-0.2
			c-0.4-0.2-0.8-0.3-1.2-0.5c-0.1,0-0.2-0.1-0.3-0.1c-0.5-0.2-1-0.5-1.5-0.7c-0.3-0.1-0.5-0.3-0.8-0.4c-0.2-0.1-0.3-0.1-0.4-0.2
			c-0.3-0.2-0.6-0.4-1-0.5c-0.1,0-0.2-0.1-0.2-0.1c-0.4-0.2-0.8-0.5-1.2-0.7c-0.1-0.1-0.2-0.2-0.4-0.2c-0.3-0.2-0.5-0.3-0.8-0.5
			c-0.5-0.4-1-0.8-1.6-1.1c-0.1-0.1-0.2-0.2-0.3-0.3c-5.4-4.3-9.8-10.2-11.8-16.8c-2.2-6.9-1.7-14.7,2-20.9"/>
	</defs>
	<clipPath id="SVGID_128_">
		<use xlink:href="#SVGID_127_"  style="overflow:visible;"/>
	</clipPath>
	<g class="st63">
		<defs>
			<rect id="SVGID_129_" x="-768" y="-720" width="1024" height="2054"/>
		</defs>
		<clipPath id="SVGID_130_">
			<use xlink:href="#SVGID_129_"  style="overflow:visible;"/>
		</clipPath>
		<rect x="41" y="-1" class="st64" width="72" height="63"/>
	</g>
</g>
<g>
	<defs>
		<path id="SVGID_131_" d="M71.9,3.3C68.5,8,68.2,13.8,70.5,19C73,24.5,78,28.8,84,30.9c0.2,0.1,0.5,0.2,0.7,0.2
			c0.1,0,0.2,0.1,0.3,0.1c0.3,0.1,0.7,0.2,1,0.3c16.3,3,20.8-7.9,21.9-9.5c-3.9,5.3-10.4,6.5-18.4,4.7c-0.6-0.1-1.3-0.4-1.9-0.6
			c-0.8-0.3-1.6-0.6-2.3-0.9c-1.4-0.6-2.8-1.4-4-2.3C74.2,17.8,69.7,8,74.4,0"/>
	</defs>
	<clipPath id="SVGID_132_">
		<use xlink:href="#SVGID_131_"  style="overflow:visible;"/>
	</clipPath>
	<g class="st65">
		<defs>
			<rect id="SVGID_133_" x="-768" y="-720" width="1024" height="2054"/>
		</defs>
		<clipPath id="SVGID_134_">
			<use xlink:href="#SVGID_133_"  style="overflow:visible;"/>
		</clipPath>
		<rect x="64" y="-5" class="st66" width="49" height="42"/>
	</g>
</g>
</svg>
